<svg width="12" height="8" viewBox="0 0 12 8" fill="none" xmlns="http://www.w3.org/2000/svg">
<path d="M0.617394 0.906579C0.781481 0.742542 1.004 0.650391 1.23602 0.650391C1.46804 0.650391 1.69056 0.742542 1.85464 0.906579L6.18589 5.23783L10.5171 0.906579C10.6822 0.747191 10.9032 0.658995 11.1326 0.660989C11.362 0.662982 11.5815 0.755005 11.7437 0.917238C11.906 1.07947 11.998 1.29893 12 1.52835C12.002 1.75777 11.9138 1.9788 11.7544 2.14383L6.80452 7.0937C6.64043 7.25774 6.41791 7.34989 6.18589 7.34989C5.95388 7.34989 5.73136 7.25774 5.56727 7.0937L0.617394 2.14383C0.453357 1.97974 0.361206 1.75722 0.361206 1.5252C0.361206 1.29319 0.453357 1.07067 0.617394 0.906579Z" fill="#222222"/>
</svg>
