<?xml version="1.0" encoding="utf-8"?>
<!-- Generator: Adobe Illustrator 25.4.1, SVG Export Plug-In . SVG Version: 6.00 Build 0)  -->
<svg version="1.1" id="Слой_1" xmlns="http://www.w3.org/2000/svg" xmlns:xlink="http://www.w3.org/1999/xlink" x="0px" y="0px"
	 width="200px" height="200px" viewBox="0 0 200 200" style="enable-background:new 0 0 200 200;" xml:space="preserve">
<style type="text/css">
	.st0{fill:url(#SVGID_1_);}
	.st1{fill:#FFFFFF;}
</style>
<g>
	<linearGradient id="SVGID_1_" gradientUnits="userSpaceOnUse" x1="0" y1="100" x2="200" y2="100">
		<stop  offset="0" style="stop-color:#FF4800"/>
		<stop  offset="1" style="stop-color:#FF8500"/>
	</linearGradient>
	<path class="st0" d="M151.6,200H48.4C21.7,200,0,178.3,0,151.6V48.4C0,21.7,21.7,0,48.4,0h103.2C178.3,0,200,21.7,200,48.4v103.2
		C200,178.3,178.3,200,151.6,200z"/>
	<g>
		<g>
			<g>
				<path class="st1" d="M64.6,165c-2.9,0-5.3,2.4-5.3,5.3v5.1c0,2.9,2.4,5.3,5.3,5.3c2.9,0,5.3-2.4,5.3-5.3v-5.1
					C70,167.4,67.6,165,64.6,165z"/>
				<path class="st1" d="M135.4,165c-2.9,0-5.3,2.4-5.3,5.3v5.1c0,2.9,2.4,5.3,5.3,5.3c2.9,0,5.3-2.4,5.3-5.3v-5.1
					C140.7,167.4,138.3,165,135.4,165z"/>
				<path class="st1" d="M139.6,36.1h-14.4v-8c0-4.9-4-8.9-8.9-8.9H83.7c-4.9,0-8.9,4-8.9,8.9v8H60.4c-9,0-16.3,7.3-16.3,16.3v55.7
					c0,16.2,20,23.8,30.8,11.7l-12.9-5l6.5-7.1l13.2,1.3c4.9-6.2,9.4-11.9,13.5-17l-40-13l7.9-8.6l47.5,3.3
					c12.4-14,19.7-20.2,24.5-20.5c1.4-0.1,2.8,0.3,3.8,1.3c1,0.9,1.6,2.2,1.7,3.6c0.3,4.8-4.9,12.8-17.4,26.8l9.1,46.7l-7.8,8.5
					L107,102.3c-4.5,4.7-9.5,9.8-15.2,15.5l2.9,12.9l-6.4,7l-6.3-11.9l-5.7,6.4c-10.1,11.4-2,29.3,13.2,29.3h50.2
					c9,0,16.3-7.3,16.3-16.3V52.4C155.9,43.4,148.6,36.1,139.6,36.1z M82.3,28.1c0-0.8,0.6-1.4,1.4-1.4h32.5c0.8,0,1.4,0.6,1.4,1.4
					v8H82.3V28.1z"/>
			</g>
		</g>
	</g>
</g>
</svg>
