<svg width="78" height="32" viewBox="0 0 78 32" fill="none" xmlns="http://www.w3.org/2000/svg">
<path d="M4.13604 28.875C3.54209 28.875 3.0542 29.3541 3.0542 29.9374V30.9374C3.0542 31.5207 3.54209 31.9998 4.13604 31.9998C4.73 31.9998 5.21789 31.5207 5.21789 30.9374V29.9374C5.21789 29.3541 4.73 28.875 4.13604 28.875Z" fill="url(#paint0_linear_2150_5356)"/>
<path d="M18.4125 28.875C17.8186 28.875 17.3307 29.3541 17.3307 29.9374V30.9374C17.3307 31.5207 17.8186 31.9998 18.4125 31.9998C19.0065 31.9998 19.4944 31.5207 19.4944 30.9374V29.9374C19.4944 29.3541 19.0065 28.875 18.4125 28.875Z" fill="url(#paint1_linear_2150_5356)"/>
<path d="M19.2611 3.33313H16.355V1.7499C16.355 0.770787 15.5489 0 14.5731 0H7.99717C7.00018 0 6.21531 0.791619 6.21531 1.7499V3.33313H3.28796C1.46367 3.33313 0 4.79138 0 6.58294V17.6239C0 20.8321 4.05162 22.332 6.21531 19.9363L3.62736 18.9572L4.94255 17.5406L7.59413 17.7906C8.56991 16.5615 9.50327 15.4366 10.3306 14.4158L2.26975 11.8326L3.8607 10.1244L13.4488 10.791C15.9519 7.99952 17.4156 6.79126 18.3914 6.72876C18.6884 6.70793 18.9641 6.79126 19.155 6.97875C19.3672 7.16624 19.4944 7.41622 19.4944 7.70787C19.5581 8.64532 18.4974 10.2494 15.9943 13.0201L17.8186 22.2695L16.2489 23.9569L12.6852 16.4573C11.773 17.3948 10.7548 18.3947 9.60933 19.5197L10.1821 22.082L8.8881 23.4778L7.61534 21.1237L6.46986 22.3945C4.43344 24.6444 6.06682 28.1858 9.12144 28.1858H19.2611C21.0854 28.1858 22.5491 26.7484 22.5491 24.9568V6.58294C22.5491 4.79138 21.0854 3.33313 19.2611 3.33313ZM7.72141 1.7499C7.72141 1.60407 7.84868 1.47908 7.99717 1.47908H14.5519C14.7004 1.47908 14.8276 1.60407 14.8276 1.7499V3.33313H7.72141V1.7499Z" fill="url(#paint2_linear_2150_5356)"/>
<path d="M42.6398 23.9772L45.9278 27.0812H48.8976L44.0186 22.4356L48.7703 18.1025H45.7369L42.6398 20.9149V18.1025H40.5186V27.0812H42.6398V23.9772Z" fill="#222222"/>
<path d="M49.1301 25.9185C50.0422 26.8142 51.1665 27.2726 52.4605 27.2726C53.5423 27.2726 54.4332 26.9809 55.1757 26.3976V27.0851H57.3182V18.1064H55.1757V18.7939C54.4332 18.2106 53.5211 17.9189 52.4605 17.9189C51.1665 17.9189 50.0422 18.3773 49.1301 19.273C48.2179 20.1688 47.7725 21.2937 47.7725 22.5853C47.7725 23.8978 48.2179 25.0019 49.1301 25.9185ZM50.6786 20.7521C51.1877 20.2313 51.8029 19.9813 52.5453 19.9813C53.2877 19.9813 53.9029 20.2313 54.4332 20.7521C54.9423 21.2521 55.1969 21.8562 55.1969 22.6062C55.1969 23.3353 54.9423 23.9394 54.4332 24.4602C53.9241 24.9602 53.309 25.2102 52.5453 25.2102C51.8029 25.2102 51.1877 24.9602 50.6786 24.4602C50.1695 23.9394 49.9149 23.3353 49.9149 22.6062C49.9149 21.8562 50.1483 21.2521 50.6786 20.7521Z" fill="#222222"/>
<path d="M64.2116 21.9981V27.0812H66.3541V18.1025H64.657L60.6479 23.1856V18.1025H58.5054V27.0812H60.2024L64.2116 21.9981Z" fill="#222222"/>
<path d="M76.6848 19.3989C75.9424 18.649 74.9666 18.1698 73.7787 17.9823V16.4824H71.6362V17.9823C70.4483 18.1698 69.4725 18.649 68.7301 19.3989C67.8604 20.2739 67.4149 21.3571 67.4149 22.5862C67.4149 23.8153 67.8604 24.8986 68.7301 25.7735C69.4725 26.5235 70.4483 27.0026 71.6362 27.1901V28.69H73.7787V27.1901C74.9666 27.0026 75.9424 26.5235 76.6848 25.7735C77.5546 24.8986 78 23.8153 78 22.5862C78 21.3571 77.5546 20.2947 76.6848 19.3989ZM71.6362 25.0861C71.0847 24.9402 70.618 24.7111 70.2574 24.3361C69.7907 23.857 69.5574 23.2945 69.5574 22.6071C69.5574 21.9196 69.7907 21.3363 70.2574 20.878C70.618 20.5238 71.0847 20.2739 71.6362 20.128V25.0861ZM75.1575 24.3361C74.7969 24.6903 74.3302 24.9402 73.7787 25.0861V20.1072C74.3302 20.2322 74.7969 20.4822 75.1575 20.8572C75.6242 21.3363 75.8576 21.8988 75.8576 22.5862C75.8576 23.2737 75.6242 23.857 75.1575 24.3361Z" fill="#222222"/>
<path d="M29.0629 7.58972H31.9054V14.506H34.0478V7.58972H36.9116V5.52734H29.0629V7.58972Z" fill="#222222"/>
<path d="M56.4496 6.691C55.5374 5.79522 54.4344 5.33691 53.1404 5.33691C52.0586 5.33691 51.1676 5.62856 50.4252 6.21186V5.5244H48.2827V16.7737H50.4252V13.8156C51.1676 14.3989 52.0798 14.6905 53.1404 14.6905C54.4344 14.6905 55.5587 14.2322 56.4496 13.3364C57.3617 12.4407 57.8284 11.3157 57.8284 10.0241C57.8284 8.71171 57.3829 7.58678 56.4496 6.691ZM54.9435 11.8782C54.4344 12.3782 53.8192 12.6281 53.0556 12.6281C52.3131 12.6281 51.698 12.3782 51.1889 11.8782C50.6797 11.3574 50.4252 10.7533 50.4252 10.0241C50.4252 9.29501 50.6797 8.69088 51.1889 8.17008C51.698 7.64928 52.3131 7.39929 53.0556 7.39929C53.798 7.39929 54.4132 7.64928 54.9435 8.17008C55.4526 8.67005 55.7071 9.27418 55.7071 10.0241C55.7071 10.7324 55.4526 11.3574 54.9435 11.8782Z" fill="#222222"/>
<path d="M40.4763 16.7767H42.7885L47.2644 5.52734H44.9734L42.7036 11.3187L40.052 5.52734H37.7399L41.6006 14.0268L40.4763 16.7767Z" fill="#222222"/>
<path d="M35.7238 22.3523C36.042 21.9356 36.2117 21.394 36.2117 20.769C36.2117 19.9983 35.9359 19.3316 35.3844 18.8317C34.854 18.3525 34.1116 18.1025 33.2207 18.1025H29.063V27.0812H33.5176C34.451 27.0812 35.1934 26.8312 35.745 26.3104C36.2965 25.7896 36.5935 25.123 36.5935 24.2897C36.5723 23.4772 36.2753 22.8106 35.7238 22.3523ZM33.8783 21.3315C33.751 21.4565 33.5176 21.4982 33.1995 21.4982H31.1843V20.1857H33.1995C33.5176 20.1857 33.751 20.2482 33.8783 20.3732C33.9419 20.4357 34.048 20.5607 34.048 20.8315C34.048 21.0607 34.0055 21.2274 33.8783 21.3315ZM31.1843 23.5814H33.4964C33.8358 23.5814 34.0904 23.6439 34.2389 23.7897C34.3237 23.873 34.4298 23.998 34.4298 24.2897C34.4298 24.623 34.3237 24.748 34.2389 24.8105C34.0904 24.9355 33.8358 25.0188 33.4964 25.0188H31.1843V23.5814Z" fill="#222222"/>
<path d="M64.702 14.959H60.1625V16.9589H64.702V14.959Z" fill="#222222"/>
<defs>
<linearGradient id="paint0_linear_2150_5356" x1="5.21789" y1="28.875" x2="2.29289" y2="30.9003" gradientUnits="userSpaceOnUse">
<stop stop-color="#FF8500"/>
<stop offset="1" stop-color="#FF4800"/>
</linearGradient>
<linearGradient id="paint1_linear_2150_5356" x1="19.4944" y1="28.875" x2="16.5694" y2="30.9003" gradientUnits="userSpaceOnUse">
<stop stop-color="#FF8500"/>
<stop offset="1" stop-color="#FF4800"/>
</linearGradient>
<linearGradient id="paint2_linear_2150_5356" x1="22.5491" y1="0" x2="-4.94941" y2="21.9992" gradientUnits="userSpaceOnUse">
<stop stop-color="#FF8500"/>
<stop offset="1" stop-color="#FF4800"/>
</linearGradient>
</defs>
</svg>
